<?xml version="1.0" encoding="utf-8"?>
<!-- Generator: Adobe Illustrator 27.3.1, SVG Export Plug-In . SVG Version: 6.00 Build 0)  -->
<svg version="1.1" id="Layer_1" xmlns="http://www.w3.org/2000/svg" xmlns:xlink="http://www.w3.org/1999/xlink" x="0px" y="0px"
	 viewBox="0 0 428 70" style="enable-background:new 0 0 428 70;" xml:space="preserve">
<style type="text/css">
	.st0{fill:none;stroke:#C2D6FF;stroke-width:2;}
</style>
<path class="st0" d="M249.6,4c3.4,0.1,6.7,0.4,10.1,0.5L269.8,5c6.7,0.4,13.3,0.8,20,1.2c9.5,0.6,18.9,1.3,28.4,2.1
	c11.3,1,22.6,2.1,33.6,3.6c6.5,0.9,12.8,1.8,19.1,2.9l4.3,0.8l2.2,0.4l2.1,0.4l4.3,0.8l4.2,0.9c5.6,1.2,10.9,2.6,15.8,4.1
	c4.5,1.4,8.9,3.2,12.2,4.9c2.3,1.2,4.5,2.6,6.1,4c1.6,1.5,2.8,3,3.3,4.6l0.3,1.2c0.1,0.4,0,0.8,0,1.2c-0.1,0.8-0.3,1.6-0.6,2.4
	c-0.7,1.6-2,3.2-3.7,4.6c-1.5,1.2-3.4,2.5-5.3,3.5c-5.9,3.1-13.5,5.4-22,7.3c-1.3,0.3-3,0.6-4,0.8c-3.4,0.6-7.2,1.3-11,1.9
	c-3.8,0.6-7.8,1.1-11.6,1.7c-1.6,0.2-3.1,0.4-4.7,0.6c-1.6,0.2-3.1,0.4-4.7,0.6c-3.1,0.4-6.2,0.7-9.2,1.1c-1.6,0.2-3.3,0.4-4.9,0.5
	c-1.6,0.2-3.4,0.3-5,0.5c-3.4,0.3-6.7,0.6-10.1,0.9c-1.5,0.1-3.2,0.3-4.9,0.4c-1.7,0.1-3.5,0.3-5.3,0.4c-3.5,0.2-7.2,0.5-10.7,0.7
	c-3.8,0.2-7.6,0.4-11.4,0.6c-5.1,0.2-10,0.5-15.1,0.6c-2.5,0.1-4.9,0.2-7.5,0.3c-2.5,0.1-5,0.1-7.5,0.2c-4.8,0.1-9.6,0.2-14.3,0.3
	c-4.7,0.1-9.3,0.2-13.5,0.3c-3.9,0.1-9.4,0.1-14.4,0.1c-1.1,0-2.1,0-3.2,0c-10.9,0.1-21.8,0.1-32.8,0.1c-13.2,0-26.5,0.1-39.6-0.1
	c-17.9-0.2-36.3-0.5-54.8-1.2c-1.5-0.1-3.1-0.1-4.4-0.2c-2.2-0.1-4.3-0.2-6.3-0.3c-2-0.1-3.7-0.2-5.4-0.3c-3.2-0.2-6.4-0.4-9.9-0.6
	c-6-0.4-12-0.9-17.7-1.4C41,63.5,31.8,62.1,23.9,60c-0.7-0.2-1.4-0.4-2-0.6c-0.7-0.2-1.3-0.4-1.9-0.6c-0.5-0.2-1.1-0.4-1.6-0.5
	c-0.5-0.2-1-0.4-1.5-0.6c-0.5-0.2-1-0.4-1.6-0.6c-0.5-0.2-1.1-0.5-1.7-0.8c-0.3-0.2-0.8-0.4-1.2-0.6c-0.4-0.2-0.9-0.5-1.4-0.8
	s-1-0.6-1.5-0.9c-0.5-0.3-0.9-0.6-1.3-0.9c-1.3-1-2.6-2-3.4-3c-0.9-1-1.6-2.1-1.9-3.3C2.5,45.5,2.5,44,3,42.6s1.5-2.8,2.6-4
	c3-3,7.6-5.5,12.7-7.7c6.1-2.7,13.2-5.1,20.2-7c1.1-0.3,2.9-0.8,4.2-1.2c3.8-1,7.7-1.9,11.6-2.8c1.6-0.3,3-0.6,4.1-0.9
	c1.6-0.3,3-0.6,4.4-0.9c3.3-0.6,3.8-0.8,1.9-0.5c-1.8,0.2-6.2,0.9-12.2,2.1c-4.3,0.9-9.2,2.1-13,3.1C31.8,25,24.9,27.3,18.4,30
	c-4.5,1.8-8.9,4.2-12,6.5c-1.6,1.3-2.9,2.6-3.9,4.1s-1.5,3-1.4,4.5c0.1,1.4,0.7,2.8,1.6,4.1C3.9,50.9,5.3,52,7,53.3
	c2.5,1.8,5.9,3.4,9.5,4.8c4.1,1.6,8.9,2.9,13.7,3.9c0.5,0.1,1.2,0.2,1.6,0.3c4,0.8,8.5,1.5,13,2s9.1,1,13.7,1.3
	c2.8,0.2,5.7,0.4,8.6,0.6c1.4,0.1,2.9,0.2,4.3,0.3c1.4,0.1,2.9,0.2,4.3,0.3c7.2,0.4,13.4,0.7,20,1c9.2,0.4,18.7,0.7,28.1,0.8
	c7.5,0.1,15.1,0.2,22.6,0.2c10,0,20,0,29.9,0c7.4,0,14.7-0.1,22.1-0.1c1.4,0,2.9,0,4.3,0c10.9-0.1,22-0.2,33.2-0.3
	c15.2-0.2,30.6-0.4,45.8-1c2.7-0.1,5.5-0.2,7.8-0.3c7.1-0.2,14.9-0.7,22.3-1.1c2.9-0.2,6.4-0.4,9.2-0.7c3.4-0.3,6.6-0.6,10-0.8
	c3.4-0.3,6.7-0.6,10.3-0.9c1-0.1,2-0.2,3.1-0.3s2-0.2,3.1-0.3c2.1-0.2,4.3-0.4,6.5-0.7c0.3,0,0.8-0.1,1.4-0.2
	c0.6-0.1,1.2-0.2,1.7-0.2c1.8-0.2,3.8-0.5,5.6-0.7s3.8-0.4,5.6-0.7c1.9-0.3,3.8-0.5,5.7-0.8c2-0.3,4-0.6,6.1-0.9
	c3.2-0.5,7.7-1.3,11.1-1.9c3.1-0.6,6.8-1.5,9.9-2.3c2.1-0.6,5.7-1.6,8.4-2.6c2.8-1,5.3-2.1,7.5-3.3c2.5-1.3,4.5-2.7,6.1-4.2
	s2.8-3.1,3.4-4.8c0.5-1.3,0.5-2.7,0.1-4c0-0.3-0.2-0.7-0.3-1c-0.1-0.3-0.3-0.7-0.5-1l-0.7-1l-0.4-0.5l-0.5-0.5
	c-2.7-2.9-7.2-5.5-12.4-7.6c-4.4-1.8-9.4-3.4-14.6-4.8c-2.6-0.7-5.3-1.3-8-1.9s-5.4-1.2-8.2-1.7c-2.8-0.6-5.7-1.1-8.6-1.6
	c-1.5-0.3-2.9-0.5-4.4-0.7s-2.9-0.5-4.4-0.7c-10.6-1.6-21.5-3-32.5-4c-2-0.2-4-0.4-6-0.6c-2-0.2-4-0.4-6-0.5c-4-0.3-8.3-0.7-12-1
	c-6.1-0.5-12.6-0.9-18.7-1.3c-10.5-0.6-21-1.2-32.3-1.9c-3.4-0.2-6.6-0.4-10-0.5c-3.9,0-7.2-0.2-10.6-0.4c-3.4-0.1-6.7-0.3-10.2-0.4
	L220.4,2l-5.1-0.2c-3.7-0.1-7.3-0.2-11-0.3c-3.7-0.1-7.3-0.1-11-0.2c-1.6,0-3.1-0.1-4.7-0.1c-1.6,0-3.1,0-4.7-0.1
	c-5.8,0-11.7-0.2-17.5-0.1c-2.3,0-4.5,0-6.7,0c-2.3,0-4.4,0-6.7,0.1c-4.5,0.1-9,0.1-13.7,0.3c-3.7,0.1-7.3,0.3-11,0.4
	c-1.8,0.1-3.7,0.1-5.5,0.2l-5.5,0.3l-5.5,0.3c-1.8,0.1-3.7,0.2-5.5,0.3c-3.6,0.3-7.3,0.5-10.9,0.8C91.9,3.9,88.5,4.3,85,4.6L79.7,5
	c-1.7,0.2-3.5,0.3-5.2,0.5c-1.4,0.1-3,0.3-4.3,0.5c-2,0.2-4.1,0.5-6.2,0.7c-1,0.1-2,0.2-3.1,0.3s-2,0.3-3.1,0.4
	C53.7,8,49.6,8.5,45.5,9.1c-4,0.7-8.2,1.4-12,2c-3.5,0.6-3.9,0.7-1.4,0.4c2.6-0.3,5.2-0.7,10.4-1.6c3.1-0.5,6.4-0.9,9.7-1.4
	c3.3-0.4,6.5-0.9,9.8-1.3c3.1-0.3,6.4-0.7,9.8-1c1.6-0.2,3.4-0.4,5-0.5c1.7-0.1,3.4-0.3,5.1-0.5C84.9,5,88,4.7,91,4.4
	c1.5-0.1,3.1-0.2,4.6-0.3c1.5-0.1,3.1-0.2,4.7-0.3c1.5-0.1,3.2-0.2,4.7-0.3s3.2-0.2,4.7-0.3c3.2-0.2,6.3-0.3,9.5-0.5
	c1.9-0.1,3.8-0.2,5.7-0.3c1.9,0,3.8-0.1,5.7-0.2c20.5-0.7,41.3-0.7,62.3-0.3c3.9,0.1,7.8,0.2,11.6,0.2c3.2,0.1,6.4,0.2,9.6,0.3
	c3.2,0.1,6.4,0.2,9.6,0.4c2.5,0.1,5.1,0.2,7.6,0.3c6.2,0.2,12.4,0.6,18.6,0.9L249.6,4z"/>
</svg>
