<?xml version="1.0" standalone="no"?>
<svg xmlns:xlink="http://www.w3.org/1999/xlink" id="wave" style="transform:rotate(0deg); transition: 0.3s" viewBox="0 0 1440 490" version="1.1" xmlns="http://www.w3.org/2000/svg"><defs><linearGradient id="sw-gradient-0" x1="0" x2="0" y1="1" y2="0"><stop stop-color="rgba(194, 214, 255, 1)" offset="0%"/><stop stop-color="rgba(194, 214, 255, 1)" offset="100%"/></linearGradient></defs><path style="transform:translate(0, 0px); opacity:1" fill="url(#sw-gradient-0)" d="M0,245L48,245C96,245,192,245,288,245C384,245,480,245,576,204.2C672,163,768,82,864,40.8C960,0,1056,0,1152,16.3C1248,33,1344,65,1440,73.5C1536,82,1632,65,1728,106.2C1824,147,1920,245,2016,277.7C2112,310,2208,278,2304,220.5C2400,163,2496,82,2592,49C2688,16,2784,33,2880,89.8C2976,147,3072,245,3168,302.2C3264,359,3360,376,3456,367.5C3552,359,3648,327,3744,318.5C3840,310,3936,327,4032,285.8C4128,245,4224,147,4320,122.5C4416,98,4512,147,4608,163.3C4704,180,4800,163,4896,130.7C4992,98,5088,49,5184,89.8C5280,131,5376,261,5472,277.7C5568,294,5664,196,5760,171.5C5856,147,5952,196,6048,196C6144,196,6240,147,6336,130.7C6432,114,6528,131,6624,114.3C6720,98,6816,49,6864,24.5L6912,0L6912,490L6864,490C6816,490,6720,490,6624,490C6528,490,6432,490,6336,490C6240,490,6144,490,6048,490C5952,490,5856,490,5760,490C5664,490,5568,490,5472,490C5376,490,5280,490,5184,490C5088,490,4992,490,4896,490C4800,490,4704,490,4608,490C4512,490,4416,490,4320,490C4224,490,4128,490,4032,490C3936,490,3840,490,3744,490C3648,490,3552,490,3456,490C3360,490,3264,490,3168,490C3072,490,2976,490,2880,490C2784,490,2688,490,2592,490C2496,490,2400,490,2304,490C2208,490,2112,490,2016,490C1920,490,1824,490,1728,490C1632,490,1536,490,1440,490C1344,490,1248,490,1152,490C1056,490,960,490,864,490C768,490,672,490,576,490C480,490,384,490,288,490C192,490,96,490,48,490L0,490Z"/><defs><linearGradient id="sw-gradient-1" x1="0" x2="0" y1="1" y2="0"><stop stop-color="rgba(4, 32, 99, 1)" offset="0%"/><stop stop-color="rgba(4, 32, 99, 1)" offset="100%"/></linearGradient></defs><path style="transform:translate(0, 50px); opacity:0.9" fill="url(#sw-gradient-1)" d="M0,49L48,40.8C96,33,192,16,288,40.8C384,65,480,131,576,179.7C672,229,768,261,864,253.2C960,245,1056,196,1152,163.3C1248,131,1344,114,1440,106.2C1536,98,1632,98,1728,98C1824,98,1920,98,2016,114.3C2112,131,2208,163,2304,147C2400,131,2496,65,2592,65.3C2688,65,2784,131,2880,187.8C2976,245,3072,294,3168,294C3264,294,3360,245,3456,204.2C3552,163,3648,131,3744,122.5C3840,114,3936,131,4032,138.8C4128,147,4224,147,4320,155.2C4416,163,4512,180,4608,187.8C4704,196,4800,196,4896,196C4992,196,5088,196,5184,228.7C5280,261,5376,327,5472,326.7C5568,327,5664,261,5760,245C5856,229,5952,261,6048,245C6144,229,6240,163,6336,114.3C6432,65,6528,33,6624,16.3C6720,0,6816,0,6864,0L6912,0L6912,490L6864,490C6816,490,6720,490,6624,490C6528,490,6432,490,6336,490C6240,490,6144,490,6048,490C5952,490,5856,490,5760,490C5664,490,5568,490,5472,490C5376,490,5280,490,5184,490C5088,490,4992,490,4896,490C4800,490,4704,490,4608,490C4512,490,4416,490,4320,490C4224,490,4128,490,4032,490C3936,490,3840,490,3744,490C3648,490,3552,490,3456,490C3360,490,3264,490,3168,490C3072,490,2976,490,2880,490C2784,490,2688,490,2592,490C2496,490,2400,490,2304,490C2208,490,2112,490,2016,490C1920,490,1824,490,1728,490C1632,490,1536,490,1440,490C1344,490,1248,490,1152,490C1056,490,960,490,864,490C768,490,672,490,576,490C480,490,384,490,288,490C192,490,96,490,48,490L0,490Z"/></svg>